<?xml version="1.0" encoding="UTF-8" standalone="no"?>
<!DOCTYPE svg PUBLIC "-//W3C//DTD SVG 1.1//EN"
 "http://www.w3.org/Graphics/SVG/1.1/DTD/svg11.dtd">
<!-- Generated by graphviz version 2.46.0 (20210118.1747)
 -->
<!-- Title: g Pages: 1 -->
<svg width="410pt" height="443pt"
 viewBox="0.00 0.00 410.00 443.00" xmlns="http://www.w3.org/2000/svg" xmlns:xlink="http://www.w3.org/1999/xlink">
<g id="graph0" class="graph" transform="scale(1 1) rotate(0) translate(4 439)">
<title>g</title>
<polygon fill="white" stroke="transparent" points="-4,4 -4,-439 406,-439 406,4 -4,4"/>
<g id="clust3" class="cluster">
<title>cluster_2</title>
<polygon fill="none" stroke="white" points="200,-91 200,-344 303,-344 303,-91 200,-91"/>
<text text-anchor="middle" x="251.5" y="-98.8" font-family="Times New Roman,serif" font-size="14.00">Hidden Layer 2</text>
</g>
<g id="clust4" class="cluster">
<title>cluster_output</title>
<polygon fill="none" stroke="white" points="311,-174 311,-261 402,-261 402,-174 311,-174"/>
<text text-anchor="middle" x="356.5" y="-181.8" font-family="Times New Roman,serif" font-size="14.00">Output Layer</text>
</g>
<g id="clust2" class="cluster">
<title>cluster_1</title>
<polygon fill="none" stroke="white" points="89,-8 89,-427 192,-427 192,-8 89,-8"/>
<text text-anchor="middle" x="140.5" y="-15.8" font-family="Times New Roman,serif" font-size="14.00">Hidden Layer 1</text>
</g>
<g id="clust1" class="cluster">
<title>cluster_input</title>
<polygon fill="none" stroke="white" points="0,-49 0,-385 81,-385 81,-49 0,-49"/>
<text text-anchor="middle" x="40.5" y="-56.8" font-family="Times New Roman,serif" font-size="14.00">Input Layer</text>
</g>
<!-- 1 -->
<g id="node1" class="node">
<title>1</title>
<ellipse fill="#ff006d" stroke="#ff006d" cx="40.5" cy="-353" rx="23.5" ry="23.5"/>
<text text-anchor="middle" x="40.5" y="-349.3" font-family="Times New Roman,serif" font-size="14.00" fill="#ff006d">1</text>
</g>
<!-- 5 -->
<g id="node5" class="node">
<title>5</title>
<ellipse fill="#01befe" stroke="#01befe" cx="140.5" cy="-63" rx="23.5" ry="23.5"/>
<text text-anchor="middle" x="140.5" y="-59.3" font-family="Times New Roman,serif" font-size="14.00" fill="#01befe">5</text>
</g>
<!-- 1&#45;&gt;5 -->
<g id="edge1" class="edge">
<title>1&#45;&gt;5</title>
<path fill="none" stroke="#707070" stroke-width="2" d="M49.03,-330.73C67.31,-276.61 113.91,-138.73 132.08,-84.95"/>
</g>
<!-- 6 -->
<g id="node6" class="node">
<title>6</title>
<ellipse fill="#01befe" stroke="#01befe" cx="140.5" cy="-395" rx="23.5" ry="23.5"/>
<text text-anchor="middle" x="140.5" y="-391.3" font-family="Times New Roman,serif" font-size="14.00" fill="#01befe">6</text>
</g>
<!-- 1&#45;&gt;6 -->
<g id="edge5" class="edge">
<title>1&#45;&gt;6</title>
<path fill="none" stroke="#707070" stroke-width="2" d="M62.28,-361.91C78.91,-369.03 102.12,-378.98 118.75,-386.11"/>
</g>
<!-- 7 -->
<g id="node7" class="node">
<title>7</title>
<ellipse fill="#01befe" stroke="#01befe" cx="140.5" cy="-312" rx="23.5" ry="23.5"/>
<text text-anchor="middle" x="140.5" y="-308.3" font-family="Times New Roman,serif" font-size="14.00" fill="#01befe">7</text>
</g>
<!-- 1&#45;&gt;7 -->
<g id="edge9" class="edge">
<title>1&#45;&gt;7</title>
<path fill="none" stroke="#707070" stroke-width="2" d="M62.76,-344.1C79.32,-337.18 102.16,-327.62 118.61,-320.74"/>
</g>
<!-- 8 -->
<g id="node8" class="node">
<title>8</title>
<ellipse fill="#01befe" stroke="#01befe" cx="140.5" cy="-229" rx="23.5" ry="23.5"/>
<text text-anchor="middle" x="140.5" y="-225.3" font-family="Times New Roman,serif" font-size="14.00" fill="#01befe">8</text>
</g>
<!-- 1&#45;&gt;8 -->
<g id="edge13" class="edge">
<title>1&#45;&gt;8</title>
<path fill="none" stroke="#707070" stroke-width="2" d="M55.75,-334.97C74.33,-311.46 106.64,-270.57 125.23,-247.05"/>
</g>
<!-- 9 -->
<g id="node9" class="node">
<title>9</title>
<ellipse fill="#01befe" stroke="#01befe" cx="140.5" cy="-146" rx="23.5" ry="23.5"/>
<text text-anchor="middle" x="140.5" y="-142.3" font-family="Times New Roman,serif" font-size="14.00" fill="#01befe">9</text>
</g>
<!-- 1&#45;&gt;9 -->
<g id="edge17" class="edge">
<title>1&#45;&gt;9</title>
<path fill="none" stroke="#707070" stroke-width="2" d="M51.44,-332.01C70.22,-292.34 110.73,-206.76 129.54,-167.04"/>
</g>
<!-- 2 -->
<g id="node2" class="node">
<title>2</title>
<ellipse fill="#ff006d" stroke="#ff006d" cx="40.5" cy="-270" rx="23.5" ry="23.5"/>
<text text-anchor="middle" x="40.5" y="-266.3" font-family="Times New Roman,serif" font-size="14.00" fill="#ff006d">2</text>
</g>
<!-- 2&#45;&gt;5 -->
<g id="edge2" class="edge">
<title>2&#45;&gt;5</title>
<path fill="none" stroke="#707070" stroke-width="2" d="M51.44,-249.01C70.22,-209.34 110.73,-123.76 129.54,-84.04"/>
</g>
<!-- 2&#45;&gt;6 -->
<g id="edge6" class="edge">
<title>2&#45;&gt;6</title>
<path fill="none" stroke="#707070" stroke-width="2" d="M55.75,-288.18C74.33,-311.88 106.64,-353.09 125.23,-376.8"/>
</g>
<!-- 2&#45;&gt;7 -->
<g id="edge10" class="edge">
<title>2&#45;&gt;7</title>
<path fill="none" stroke="#707070" stroke-width="2" d="M62.28,-278.91C78.91,-286.03 102.12,-295.98 118.75,-303.11"/>
</g>
<!-- 2&#45;&gt;8 -->
<g id="edge14" class="edge">
<title>2&#45;&gt;8</title>
<path fill="none" stroke="#707070" stroke-width="2" d="M62.76,-261.1C79.32,-254.18 102.16,-244.62 118.61,-237.74"/>
</g>
<!-- 2&#45;&gt;9 -->
<g id="edge18" class="edge">
<title>2&#45;&gt;9</title>
<path fill="none" stroke="#707070" stroke-width="2" d="M55.75,-251.97C74.33,-228.46 106.64,-187.57 125.23,-164.05"/>
</g>
<!-- 3 -->
<g id="node3" class="node">
<title>3</title>
<ellipse fill="#ff006d" stroke="#ff006d" cx="40.5" cy="-187" rx="23.5" ry="23.5"/>
<text text-anchor="middle" x="40.5" y="-183.3" font-family="Times New Roman,serif" font-size="14.00" fill="#ff006d">3</text>
</g>
<!-- 3&#45;&gt;5 -->
<g id="edge3" class="edge">
<title>3&#45;&gt;5</title>
<path fill="none" stroke="#707070" stroke-width="2" d="M55.75,-168.97C74.33,-145.46 106.64,-104.57 125.23,-81.05"/>
</g>
<!-- 3&#45;&gt;6 -->
<g id="edge7" class="edge">
<title>3&#45;&gt;6</title>
<path fill="none" stroke="#707070" stroke-width="2" d="M51.44,-208.09C70.22,-247.96 110.73,-333.95 129.54,-373.86"/>
</g>
<!-- 3&#45;&gt;7 -->
<g id="edge11" class="edge">
<title>3&#45;&gt;7</title>
<path fill="none" stroke="#707070" stroke-width="2" d="M55.75,-205.18C74.33,-228.88 106.64,-270.09 125.23,-293.8"/>
</g>
<!-- 3&#45;&gt;8 -->
<g id="edge15" class="edge">
<title>3&#45;&gt;8</title>
<path fill="none" stroke="#707070" stroke-width="2" d="M62.28,-195.91C78.91,-203.03 102.12,-212.98 118.75,-220.11"/>
</g>
<!-- 3&#45;&gt;9 -->
<g id="edge19" class="edge">
<title>3&#45;&gt;9</title>
<path fill="none" stroke="#707070" stroke-width="2" d="M62.76,-178.1C79.32,-171.18 102.16,-161.62 118.61,-154.74"/>
</g>
<!-- 4 -->
<g id="node4" class="node">
<title>4</title>
<ellipse fill="#ff006d" stroke="#ff006d" cx="40.5" cy="-104" rx="23.5" ry="23.5"/>
<text text-anchor="middle" x="40.5" y="-100.3" font-family="Times New Roman,serif" font-size="14.00" fill="#ff006d">4</text>
</g>
<!-- 4&#45;&gt;5 -->
<g id="edge4" class="edge">
<title>4&#45;&gt;5</title>
<path fill="none" stroke="#707070" stroke-width="2" d="M62.76,-95.1C79.32,-88.18 102.16,-78.62 118.61,-71.74"/>
</g>
<!-- 4&#45;&gt;6 -->
<g id="edge8" class="edge">
<title>4&#45;&gt;6</title>
<path fill="none" stroke="#707070" stroke-width="2" d="M49.03,-126.35C67.31,-180.65 113.91,-319.01 132.08,-372.97"/>
</g>
<!-- 4&#45;&gt;7 -->
<g id="edge12" class="edge">
<title>4&#45;&gt;7</title>
<path fill="none" stroke="#707070" stroke-width="2" d="M51.44,-125.09C70.22,-164.96 110.73,-250.95 129.54,-290.86"/>
</g>
<!-- 4&#45;&gt;8 -->
<g id="edge16" class="edge">
<title>4&#45;&gt;8</title>
<path fill="none" stroke="#707070" stroke-width="2" d="M55.75,-122.18C74.33,-145.88 106.64,-187.09 125.23,-210.8"/>
</g>
<!-- 4&#45;&gt;9 -->
<g id="edge20" class="edge">
<title>4&#45;&gt;9</title>
<path fill="none" stroke="#707070" stroke-width="2" d="M62.28,-112.91C78.91,-120.03 102.12,-129.98 118.75,-137.11"/>
</g>
<!-- 10 -->
<g id="node10" class="node">
<title>10</title>
<ellipse fill="#01befe" stroke="#01befe" cx="251.5" cy="-229" rx="23.5" ry="23.5"/>
<text text-anchor="middle" x="251.5" y="-225.3" font-family="Times New Roman,serif" font-size="14.00" fill="#01befe">10</text>
</g>
<!-- 5&#45;&gt;10 -->
<g id="edge21" class="edge">
<title>5&#45;&gt;10</title>
<path fill="none" stroke="#707070" stroke-width="2" d="M154.22,-82.37C175.22,-114.35 216.91,-177.85 237.86,-209.76"/>
</g>
<!-- 11 -->
<g id="node11" class="node">
<title>11</title>
<ellipse fill="#01befe" stroke="#01befe" cx="251.5" cy="-146" rx="23.5" ry="23.5"/>
<text text-anchor="middle" x="251.5" y="-142.3" font-family="Times New Roman,serif" font-size="14.00" fill="#01befe">11</text>
</g>
<!-- 5&#45;&gt;11 -->
<g id="edge26" class="edge">
<title>5&#45;&gt;11</title>
<path fill="none" stroke="#707070" stroke-width="2" d="M159.99,-77.08C180.16,-92.43 212.23,-116.86 232.28,-132.13"/>
</g>
<!-- 12 -->
<g id="node12" class="node">
<title>12</title>
<ellipse fill="#01befe" stroke="#01befe" cx="251.5" cy="-312" rx="23.5" ry="23.5"/>
<text text-anchor="middle" x="251.5" y="-308.3" font-family="Times New Roman,serif" font-size="14.00" fill="#01befe">12</text>
</g>
<!-- 5&#45;&gt;12 -->
<g id="edge31" class="edge">
<title>5&#45;&gt;12</title>
<path fill="none" stroke="#707070" stroke-width="2" d="M150.79,-84.23C171.39,-131.27 220.66,-243.83 241.23,-290.82"/>
</g>
<!-- 6&#45;&gt;10 -->
<g id="edge22" class="edge">
<title>6&#45;&gt;10</title>
<path fill="none" stroke="#707070" stroke-width="2" d="M154.22,-375.63C175.22,-343.65 216.91,-280.15 237.86,-248.24"/>
</g>
<!-- 6&#45;&gt;11 -->
<g id="edge27" class="edge">
<title>6&#45;&gt;11</title>
<path fill="none" stroke="#707070" stroke-width="2" d="M150.79,-373.77C171.39,-326.73 220.66,-214.17 241.23,-167.18"/>
</g>
<!-- 6&#45;&gt;12 -->
<g id="edge32" class="edge">
<title>6&#45;&gt;12</title>
<path fill="none" stroke="#707070" stroke-width="2" d="M159.99,-380.92C180.16,-365.57 212.23,-341.14 232.28,-325.87"/>
</g>
<!-- 7&#45;&gt;10 -->
<g id="edge23" class="edge">
<title>7&#45;&gt;10</title>
<path fill="none" stroke="#707070" stroke-width="2" d="M159.99,-297.92C180.16,-282.57 212.23,-258.14 232.28,-242.87"/>
</g>
<!-- 7&#45;&gt;11 -->
<g id="edge28" class="edge">
<title>7&#45;&gt;11</title>
<path fill="none" stroke="#707070" stroke-width="2" d="M154.22,-292.63C175.22,-260.65 216.91,-197.15 237.86,-165.24"/>
</g>
<!-- 7&#45;&gt;12 -->
<g id="edge33" class="edge">
<title>7&#45;&gt;12</title>
<path fill="none" stroke="#707070" stroke-width="2" d="M164.08,-312C182.79,-312 209.24,-312 227.94,-312"/>
</g>
<!-- 8&#45;&gt;10 -->
<g id="edge24" class="edge">
<title>8&#45;&gt;10</title>
<path fill="none" stroke="#707070" stroke-width="2" d="M164.08,-229C182.79,-229 209.24,-229 227.94,-229"/>
</g>
<!-- 8&#45;&gt;11 -->
<g id="edge29" class="edge">
<title>8&#45;&gt;11</title>
<path fill="none" stroke="#707070" stroke-width="2" d="M159.99,-214.92C180.16,-199.57 212.23,-175.14 232.28,-159.87"/>
</g>
<!-- 8&#45;&gt;12 -->
<g id="edge34" class="edge">
<title>8&#45;&gt;12</title>
<path fill="none" stroke="#707070" stroke-width="2" d="M159.99,-243.08C180.16,-258.43 212.23,-282.86 232.28,-298.13"/>
</g>
<!-- 9&#45;&gt;10 -->
<g id="edge25" class="edge">
<title>9&#45;&gt;10</title>
<path fill="none" stroke="#707070" stroke-width="2" d="M159.99,-160.08C180.16,-175.43 212.23,-199.86 232.28,-215.13"/>
</g>
<!-- 9&#45;&gt;11 -->
<g id="edge30" class="edge">
<title>9&#45;&gt;11</title>
<path fill="none" stroke="#707070" stroke-width="2" d="M164.08,-146C182.79,-146 209.24,-146 227.94,-146"/>
</g>
<!-- 9&#45;&gt;12 -->
<g id="edge35" class="edge">
<title>9&#45;&gt;12</title>
<path fill="none" stroke="#707070" stroke-width="2" d="M154.22,-165.37C175.22,-197.35 216.91,-260.85 237.86,-292.76"/>
</g>
<!-- 13 -->
<g id="node13" class="node">
<title>13</title>
<ellipse fill="#93d30c" stroke="#93d30c" cx="356.5" cy="-229" rx="23.5" ry="23.5"/>
<text text-anchor="middle" x="356.5" y="-225.3" font-family="Times New Roman,serif" font-size="14.00" fill="#93d30c">13</text>
</g>
<!-- 10&#45;&gt;13 -->
<g id="edge36" class="edge">
<title>10&#45;&gt;13</title>
<path fill="none" stroke="#707070" stroke-width="2" d="M275.1,-229C292.28,-229 315.79,-229 332.95,-229"/>
</g>
<!-- 11&#45;&gt;13 -->
<g id="edge37" class="edge">
<title>11&#45;&gt;13</title>
<path fill="none" stroke="#707070" stroke-width="2" d="M270.44,-160.46C289.35,-175.69 318.94,-199.54 337.76,-214.71"/>
</g>
<!-- 12&#45;&gt;13 -->
<g id="edge38" class="edge">
<title>12&#45;&gt;13</title>
<path fill="none" stroke="#707070" stroke-width="2" d="M270.44,-297.54C289.35,-282.31 318.94,-258.46 337.76,-243.29"/>
</g>
</g>
</svg>
